<svg width="33" height="33" viewBox="0 0 33 33" fill="none" xmlns="http://www.w3.org/2000/svg">
<path d="M11 19.25C15.5563 19.25 19.25 15.5563 19.25 11C19.25 6.44365 15.5563 2.75 11 2.75C6.44365 2.75 2.75 6.44365 2.75 11C2.75 15.5563 6.44365 19.25 11 19.25Z" stroke="#FF8201" stroke-width="2" stroke-linecap="round" stroke-linejoin="round"/>
<path d="M24.8738 14.2587C26.1736 14.7433 27.3302 15.5478 28.2367 16.5979C29.1432 17.6479 29.7702 18.9096 30.0599 20.2662C30.3496 21.6228 30.2925 23.0306 29.894 24.3593C29.4954 25.688 28.7683 26.8947 27.7797 27.8679C26.7912 28.8412 25.5733 29.5494 24.2385 29.9272C22.9037 30.3049 21.4953 30.34 20.1433 30.0292C18.7914 29.7184 17.5397 29.0717 16.5039 28.149C15.4681 27.2262 14.6818 26.0572 14.2175 24.75" stroke="#FF8201" stroke-width="2" stroke-linecap="round" stroke-linejoin="round"/>
<path d="M9.625 8.25H11V13.75" stroke="#FF8201" stroke-width="2" stroke-linecap="round" stroke-linejoin="round"/>
<path d="M22.9763 19.085L23.9388 20.0613L20.0613 23.9388" stroke="#FF8201" stroke-width="2" stroke-linecap="round" stroke-linejoin="round"/>
</svg>
