<svg width="45" height="47" viewBox="0 0 45 47" fill="none" xmlns="http://www.w3.org/2000/svg">
<path d="M31.2994 38.6438C30.326 38.642 29.3626 38.44 28.464 38.0493C27.5654 37.6586 26.7493 37.0869 26.0622 36.3667C25.3752 35.6466 24.8307 34.7922 24.4598 33.8523C24.0889 32.9124 23.8989 31.9054 23.9006 30.8888C23.9006 29.3613 24.4312 28.01 24.9319 26.6079C25.2881 25.615 25.6444 24.6221 25.9931 23.6234C26.8256 21.2734 27.6187 18.8725 27.9881 16.3912C28.2806 14.4192 28.2431 12.0242 26.8125 10.5162C25.7194 9.36083 24.0244 9.10625 22.5056 9.09254C20.9869 9.10038 19.2937 9.36083 18.2006 10.5162C16.7681 12.0242 16.7381 14.4192 17.025 16.3912C17.3944 18.8725 18.1875 21.2812 19.0181 23.6234C19.3687 24.6221 19.725 25.615 20.0812 26.6079C20.5819 28.01 21.1125 29.3613 21.1125 30.8888C21.1142 31.9056 20.9242 32.9127 20.5532 33.8528C20.1821 34.7928 19.6375 35.6473 18.9502 36.3674C18.263 37.0876 17.4467 37.6593 16.5479 38.0498C15.649 38.4404 14.6854 38.6423 13.7119 38.6438C12.2325 38.6416 10.7876 38.1766 9.56345 37.3089C8.33933 36.4412 7.39207 35.2105 6.84375 33.7754C7.33403 34.2464 7.91233 34.6063 8.54226 34.8325C9.17219 35.0587 9.84012 35.1464 10.5041 35.0899C11.168 35.0334 11.8135 34.8341 12.4001 34.5044C12.9867 34.1747 13.5016 33.7218 13.9125 33.1742C14.9494 31.8033 15.1687 29.9292 14.7244 28.2646C14.2369 26.4434 13.1869 24.9688 12.3431 23.2787C9.6 18.3829 9.7125 14.7208 9.7125 14.7208C9.71212 14.1918 9.74973 13.6635 9.825 13.1404C9.86812 12.8604 9.92437 12.5784 9.99375 12.3042C10.0631 12.0438 10.1438 11.7892 10.2375 11.5346C10.502 10.8197 10.8847 10.1588 11.3681 9.58213C11.5268 9.39384 11.6959 9.21533 11.8744 9.0475C12.2397 8.70454 12.6352 8.39833 13.0556 8.13296C13.275 7.99587 13.5 7.8725 13.7306 7.755C14.2161 7.51166 14.7173 7.30421 15.2306 7.13421C15.5009 7.042 15.7742 6.9597 16.05 6.88746C16.3369 6.80912 16.6256 6.74254 16.9125 6.67792C17.2125 6.61329 17.5125 6.56042 17.8125 6.50754C18.447 6.40609 19.085 6.32966 19.725 6.27842C20.0625 6.25296 20.3944 6.23338 20.7319 6.21379C21.075 6.19421 21.4256 6.18833 21.7687 6.18246C22.1812 6.17462 22.5938 6.17463 23.0063 6.17463C23.3569 6.18246 23.7 6.18833 24.0506 6.20204C24.3881 6.21379 24.7256 6.23338 25.0631 6.26079C25.3875 6.28625 25.7194 6.31171 26.0438 6.35087C26.3625 6.38417 26.6756 6.42333 26.9869 6.47621C27.5857 6.56393 28.1801 6.68156 28.7681 6.82871C29.0438 6.89921 29.325 6.97754 29.5931 7.06371C29.8556 7.14792 30.1181 7.23996 30.375 7.34375C30.8652 7.53596 31.3415 7.76503 31.8 8.02917C32.0194 8.16037 32.2256 8.29746 32.4319 8.44629C32.6306 8.59121 32.8256 8.74788 33.0056 8.91629C33.3678 9.24375 33.6947 9.61148 33.9806 10.013C34.5808 10.8695 34.9831 11.8595 35.1562 12.9054C35.2614 13.5081 35.3116 14.1199 35.3062 14.7325C35.3062 14.7325 35.4187 18.3946 32.6756 23.2905C31.8319 24.9825 30.7744 26.4571 30.2944 28.2783C29.85 29.9429 30.075 31.817 31.1119 33.1879C31.5229 33.7354 32.0379 34.1881 32.6246 34.5176C33.2112 34.8471 33.8568 35.0463 34.5207 35.1026C35.1847 35.1589 35.8526 35.0711 36.4824 34.8447C37.1123 34.6183 37.6905 34.2582 38.1806 33.7871C37.6248 35.2187 36.6736 36.445 35.4481 37.31C34.2227 38.1749 32.7784 38.6392 31.2994 38.6438ZM22.5 0C10.0744 0 0 10.5221 0 23.5C0 36.4779 10.0744 47 22.5 47C34.9256 47 45 36.4779 45 23.5C45 10.5221 34.9256 0 22.5 0Z" fill="#C8102E"/>
</svg>
