<svg width="153" height="49" viewBox="0 0 153 49" fill="none" xmlns="http://www.w3.org/2000/svg">
<path d="M2.3134 17.4685H14.012V38.4584H24.112V47.5051H2.3134V17.4685ZM27.0272 17.4685H31.3343L45.8541 31.1044L60.7689 17.4685H64.9255V47.5051H52.5686V37.7625L44.8949 46.1885L37.4281 37.9882V47.5051H27.0272V17.4685Z" fill="black"/>
<g clip-path="url(#clip0_4080_648)">
<path d="M26.0316 6.85259C27.7806 15.2236 23.8316 21.1526 23.8316 21.1526H27.1316C29.1996 14.7726 28.2316 10.2516 27.6816 7.95259M30.0576 4.82859C30.2446 5.05959 30.4316 5.30159 30.5746 5.55459C32.4556 8.53559 32.0816 12.2976 29.8816 14.8386C30.8056 12.5836 30.6736 9.92159 29.2766 7.69959C29.1886 7.55659 29.0896 7.43559 29.0016 7.30359C28.3526 6.39059 27.5276 5.66459 26.6256 5.12559C23.4576 6.13759 21.1696 9.09659 21.1696 12.5946C21.1696 13.4086 21.2906 14.1896 21.5106 14.9156C20.5866 13.6286 20.0476 12.0556 20.0476 10.3616C20.0476 7.77659 21.3016 5.48859 23.2266 4.05859C21.6316 3.93759 19.9376 4.28959 18.4636 5.20259C17.7816 5.65359 17.1876 6.17059 16.6816 6.75359C17.2866 5.29059 18.3316 3.98159 19.7616 3.07959C21.4116 2.04559 23.2816 1.70459 25.0856 1.96859C24.6346 1.35259 24.0846 0.769588 23.4246 0.252588C22.7866 -0.209412 22.0936 -0.583412 21.3676 -0.847412C22.9516 -0.803412 24.5356 -0.297412 25.8886 0.725588C26.5816 1.24259 27.1316 1.86959 27.5716 2.52959C27.6816 2.52959 27.7806 2.51859 27.8906 2.51859C31.4106 2.51859 34.3916 4.83959 35.3816 8.04059C34.1496 6.30259 32.2466 5.12559 30.0576 4.82859Z" fill="black"/>
</g>
<line x1="75.6" y1="31.4857" x2="110.003" y2="31.4857" stroke="black" stroke-width="0.342858"/>
<path d="M117 31.4857L150 31.4857" stroke="black" stroke-width="0.342858"/>
<circle cx="113.4" cy="31.4" r="1.8" fill="#FF8201"/>
<path d="M75.8388 26.2V15.1694H79.8674C80.6347 15.1694 81.3222 15.3132 81.9296 15.601C82.5371 15.8781 83.0167 16.2884 83.3684 16.832C83.7308 17.3648 83.912 18.0096 83.912 18.7663C83.912 19.5656 83.7041 20.2317 83.2885 20.7646C82.8728 21.2975 82.3293 21.6918 81.6579 21.9476L84.2317 26.2H81.7218L79.5317 22.2673H78.0609V26.2H75.8388ZM78.0609 20.4289H79.6915C80.267 20.4289 80.736 20.2904 81.0983 20.0133C81.4607 19.7362 81.6419 19.3205 81.6419 18.7663C81.6419 18.2228 81.4607 17.8178 81.0983 17.5513C80.736 17.2742 80.267 17.1357 79.6915 17.1357H78.0609V20.4289ZM87.1292 26.2V15.1694H94.6748V17.1357H89.3513V19.6935H93.9075V21.5639H89.3513V24.2337H94.7548V26.2H87.1292ZM97.1988 24.9211L98.3019 23.1146C98.7708 23.5196 99.309 23.8447 99.9165 24.0898C100.535 24.3243 101.158 24.4415 101.787 24.4415C102.181 24.4415 102.512 24.3935 102.778 24.2976C103.055 24.191 103.263 24.0525 103.402 23.882C103.551 23.7115 103.625 23.5249 103.625 23.3225C103.625 23.1306 103.561 22.9441 103.434 22.7629C103.306 22.5711 103.076 22.3846 102.746 22.2034C102.426 22.0116 101.963 21.8144 101.355 21.6119C100.471 21.3241 99.762 21.0044 99.2291 20.6527C98.6962 20.2904 98.3125 19.9014 98.0781 19.4857C97.8436 19.0594 97.7264 18.6118 97.7264 18.1428C97.7264 17.5673 97.8809 17.0398 98.19 16.5602C98.5097 16.0806 98.968 15.7022 99.5648 15.4251C100.172 15.1374 100.902 14.9935 101.755 14.9935C102.448 14.9935 103.14 15.1107 103.833 15.3452C104.537 15.5797 105.139 15.8834 105.64 16.2564L104.585 17.999C104.158 17.6686 103.689 17.4021 103.178 17.1996C102.666 16.9971 102.133 16.8959 101.579 16.8959C101.046 16.8959 100.641 17.0025 100.364 17.2156C100.087 17.4288 99.9485 17.6739 99.9485 17.951C99.9485 18.1322 100.012 18.308 100.14 18.4786C100.279 18.6491 100.503 18.8196 100.812 18.9901C101.131 19.15 101.568 19.3205 102.123 19.5017C103.039 19.8001 103.775 20.1358 104.329 20.5088C104.883 20.8712 105.283 21.2709 105.528 21.7078C105.784 22.1448 105.911 22.6244 105.911 23.1466C105.911 23.7221 105.752 24.255 105.432 24.7452C105.112 25.2355 104.627 25.6298 103.977 25.9282C103.327 26.2267 102.522 26.3759 101.563 26.3759C101.052 26.3759 100.535 26.3172 100.012 26.2C99.5009 26.0721 99.0053 25.9016 98.5257 25.6884C98.0568 25.4753 97.6145 25.2195 97.1988 24.9211ZM108.274 20.6847C108.274 19.7788 108.408 18.9741 108.674 18.2707C108.941 17.5673 109.308 16.9705 109.777 16.4803C110.246 15.99 110.79 15.6223 111.408 15.3772C112.026 15.1214 112.681 14.9935 113.374 14.9935C114.078 14.9935 114.738 15.1214 115.356 15.3772C115.975 15.6223 116.518 15.99 116.987 16.4803C117.456 16.9705 117.818 17.5673 118.074 18.2707C118.341 18.9741 118.474 19.7788 118.474 20.6847C118.474 21.5906 118.341 22.3952 118.074 23.0986C117.818 23.802 117.456 24.3989 116.987 24.8891C116.518 25.3794 115.975 25.7524 115.356 26.0082C114.738 26.2533 114.078 26.3759 113.374 26.3759C112.681 26.3759 112.026 26.2533 111.408 26.0082C110.79 25.7524 110.246 25.3794 109.777 24.8891C109.308 24.3989 108.941 23.802 108.674 23.0986C108.408 22.3952 108.274 21.5906 108.274 20.6847ZM110.544 20.6847C110.544 21.3028 110.614 21.841 110.752 22.2993C110.902 22.7576 111.104 23.1413 111.36 23.4503C111.616 23.7594 111.914 23.9939 112.255 24.1537C112.596 24.303 112.969 24.3776 113.374 24.3776C113.779 24.3776 114.152 24.303 114.493 24.1537C114.834 23.9939 115.133 23.7594 115.388 23.4503C115.644 23.1413 115.841 22.7576 115.98 22.2993C116.129 21.841 116.204 21.3028 116.204 20.6847C116.204 20.0665 116.129 19.5283 115.98 19.0701C115.841 18.6118 115.644 18.2281 115.388 17.919C115.133 17.61 114.834 17.3808 114.493 17.2316C114.152 17.0718 113.779 16.9918 113.374 16.9918C112.969 16.9918 112.596 17.0718 112.255 17.2316C111.914 17.3808 111.616 17.61 111.36 17.919C111.104 18.2281 110.902 18.6118 110.752 19.0701C110.614 19.5283 110.544 20.0665 110.544 20.6847ZM121.516 26.2V15.1694H125.544C126.312 15.1694 126.999 15.3132 127.607 15.601C128.214 15.8781 128.694 16.2884 129.045 16.832C129.408 17.3648 129.589 18.0096 129.589 18.7663C129.589 19.5656 129.381 20.2317 128.965 20.7646C128.55 21.2975 128.006 21.6918 127.335 21.9476L129.909 26.2H127.399L125.209 22.2673H123.738V26.2H121.516ZM123.738 20.4289H125.368C125.944 20.4289 126.413 20.2904 126.775 20.0133C127.138 19.7362 127.319 19.3205 127.319 18.7663C127.319 18.2228 127.138 17.8178 126.775 17.5513C126.413 17.2742 125.944 17.1357 125.368 17.1357H123.738V20.4289ZM131.799 17.1357V15.1694H140.256V17.1357H137.138V26.2H134.916V17.1357H131.799ZM141.97 24.9211L143.073 23.1146C143.542 23.5196 144.08 23.8447 144.688 24.0898C145.306 24.3243 145.93 24.4415 146.558 24.4415C146.953 24.4415 147.283 24.3935 147.549 24.2976C147.827 24.191 148.034 24.0525 148.173 23.882C148.322 23.7115 148.397 23.5249 148.397 23.3225C148.397 23.1306 148.333 22.9441 148.205 22.7629C148.077 22.5711 147.848 22.3846 147.518 22.2034C147.198 22.0116 146.734 21.8144 146.127 21.6119C145.242 21.3241 144.533 21.0044 144.001 20.6527C143.468 20.2904 143.084 19.9014 142.849 19.4857C142.615 19.0594 142.498 18.6118 142.498 18.1428C142.498 17.5673 142.652 17.0398 142.961 16.5602C143.281 16.0806 143.739 15.7022 144.336 15.4251C144.944 15.1374 145.674 14.9935 146.526 14.9935C147.219 14.9935 147.912 15.1107 148.605 15.3452C149.308 15.5797 149.91 15.8834 150.411 16.2564L149.356 17.999C148.93 17.6686 148.461 17.4021 147.949 17.1996C147.438 16.9971 146.905 16.8959 146.351 16.8959C145.818 16.8959 145.413 17.0025 145.136 17.2156C144.858 17.4288 144.72 17.6739 144.72 17.951C144.72 18.1322 144.784 18.308 144.912 18.4786C145.05 18.6491 145.274 18.8196 145.583 18.9901C145.903 19.15 146.34 19.3205 146.894 19.5017C147.811 19.8001 148.546 20.1358 149.1 20.5088C149.654 20.8712 150.054 21.2709 150.299 21.7078C150.555 22.1448 150.683 22.6244 150.683 23.1466C150.683 23.7221 150.523 24.255 150.203 24.7452C149.884 25.2355 149.399 25.6298 148.748 25.9282C148.098 26.2267 147.294 26.3759 146.335 26.3759C145.823 26.3759 145.306 26.3172 144.784 26.2C144.272 26.0721 143.777 25.9016 143.297 25.6884C142.828 25.4753 142.386 25.2195 141.97 24.9211Z" fill="black"/>
<path d="M78.7993 42.6847C78.7993 41.7788 78.9432 40.9741 79.231 40.2707C79.5187 39.5673 79.9077 38.9758 80.398 38.4962C80.8989 38.006 81.4691 37.633 82.1085 37.3772C82.7586 37.1214 83.446 36.9935 84.1708 36.9935C84.8529 36.9935 85.4923 37.0894 86.0891 37.2813C86.686 37.4625 87.2721 37.7449 87.8476 38.1286L86.6966 39.967C86.3236 39.6792 85.9293 39.4554 85.5136 39.2956C85.1086 39.1357 84.6717 39.0558 84.2027 39.0558C83.6166 39.0558 83.0837 39.1943 82.6041 39.4714C82.1352 39.7379 81.7621 40.1428 81.485 40.6864C81.2079 41.2193 81.0694 41.8854 81.0694 42.6847C81.0694 43.4734 81.2079 44.1501 81.485 44.715C81.7621 45.2692 82.1352 45.6955 82.6041 45.9939C83.0837 46.2816 83.6272 46.4255 84.2347 46.4255C84.5118 46.4255 84.8049 46.3935 85.114 46.3296C85.423 46.255 85.7215 46.1431 86.0092 45.9939V44.1714H83.8191V42.301H88.1674V46.9051C87.5706 47.374 86.9311 47.7364 86.249 47.9922C85.5776 48.248 84.8582 48.3759 84.0908 48.3759C83.3768 48.3759 82.7 48.248 82.0606 47.9922C81.4318 47.7364 80.8722 47.3687 80.382 46.8891C79.8917 46.3989 79.5027 45.802 79.215 45.0986C78.9379 44.3952 78.7993 43.5906 78.7993 42.6847ZM90.1201 48.2L94.2126 37.1694H96.3228L100.415 48.2H98.0334L96.9463 45.0986L98.1773 45.7221H92.2943L93.4772 45.1946L92.4381 48.2H90.1201ZM93.5892 44.8429L92.9177 43.9156H97.5538L96.8824 44.8429L94.916 39.1677H95.5555L93.5892 44.8429ZM102.753 48.2V37.1694H105.855L108.461 43.7718H107.725L110.347 37.1694H113.432V48.2H111.29V38.9918L111.658 39.0558L108.828 45.866H107.373L104.528 39.0558L104.896 38.9918V48.2H102.753ZM116.784 48.2V46.4895H118.271V38.8799H116.784V37.1694H121.996V38.8799H120.493V46.4895H121.996V48.2H116.784ZM125.334 48.2V37.1694H128.308L132.928 46.3935L132.464 46.4895V37.1694H134.526V48.2H131.665L126.933 38.736L127.38 38.6241V48.2H125.334ZM137.562 42.6847C137.562 41.7788 137.706 40.9741 137.994 40.2707C138.281 39.5673 138.67 38.9758 139.161 38.4962C139.662 38.006 140.232 37.633 140.871 37.3772C141.521 37.1214 142.209 36.9935 142.933 36.9935C143.616 36.9935 144.255 37.0894 144.852 37.2813C145.449 37.4625 146.035 37.7449 146.61 38.1286L145.459 39.967C145.086 39.6792 144.692 39.4554 144.276 39.2956C143.871 39.1357 143.434 39.0558 142.965 39.0558C142.379 39.0558 141.846 39.1943 141.367 39.4714C140.898 39.7379 140.525 40.1428 140.248 40.6864C139.971 41.2193 139.832 41.8854 139.832 42.6847C139.832 43.4734 139.971 44.1501 140.248 44.715C140.525 45.2692 140.898 45.6955 141.367 45.9939C141.846 46.2816 142.39 46.4255 142.997 46.4255C143.274 46.4255 143.568 46.3935 143.877 46.3296C144.186 46.255 144.484 46.1431 144.772 45.9939V44.1714H142.582V42.301H146.93V46.9051C146.333 47.374 145.694 47.7364 145.012 47.9922C144.34 48.248 143.621 48.3759 142.853 48.3759C142.139 48.3759 141.463 48.248 140.823 47.9922C140.194 47.7364 139.635 47.3687 139.145 46.8891C138.654 46.3989 138.265 45.802 137.978 45.0986C137.701 44.3952 137.562 43.5906 137.562 42.6847Z" fill="black"/>
<g clip-path="url(#clip1_4080_648)">
<path d="M38.647 19.9405L29.2111 14.4199C28.4697 13.9862 27.5083 14.2378 27.0745 14.9792L21.5539 24.4151C21.1201 25.1565 21.3718 26.1179 22.1132 26.5517L31.5491 32.0723C32.2904 32.5061 33.2519 32.2544 33.6857 31.513L39.2063 22.0772C39.6401 21.3358 39.3884 20.3743 38.647 19.9405ZM32.2301 27.0426C31.6909 26.7271 30.943 26.9229 30.6276 27.4621C30.3121 28.0012 30.5079 28.7491 31.0471 29.0645C31.5863 29.38 32.3341 29.1842 32.6495 28.645C32.965 28.1058 32.7692 27.358 32.2301 27.0426Z" fill="black"/>
<path d="M37.8583 21.2884L32.3377 30.7242L22.9019 25.2036L28.4225 15.7678L37.8583 21.2884ZM38.647 19.9404L29.2111 14.4198C28.4697 13.9861 27.5083 14.2378 27.0745 14.9791L21.5539 24.415C21.1201 25.1564 21.3718 26.1179 22.1132 26.5516L31.5491 32.0722C32.2904 32.506 33.2519 32.2543 33.6857 31.5129L39.2063 22.0771C39.6401 21.3357 39.3884 20.3742 38.647 19.9404ZM29.7131 17.4276C29.1739 17.1121 28.4261 17.3079 28.1106 17.8471C27.7952 18.3863 27.9909 19.1341 28.5301 19.4496C29.0693 19.765 29.8171 19.5693 30.1326 19.0301C30.4481 18.4909 30.2523 17.7431 29.7131 17.4276ZM32.2301 27.0425C31.6909 26.727 30.943 26.9228 30.6276 27.462C30.3121 28.0012 30.5079 28.749 31.0471 29.0644C31.5863 29.3799 32.3341 29.1841 32.6495 28.6449C32.965 28.1058 32.7692 27.3579 32.2301 27.0425ZM35.779 20.9766C35.2398 20.6611 34.492 20.8569 34.1765 21.3961C33.8611 21.9353 34.0568 22.6831 34.596 22.9985C35.1352 23.314 35.883 23.1182 36.1985 22.579C36.514 22.0399 36.3182 21.292 35.779 20.9766ZM30.9716 22.235C30.4324 21.9196 29.6846 22.1153 29.3691 22.6545C29.0536 23.1937 29.2494 23.9415 29.7886 24.257C30.3278 24.5725 31.0756 24.3767 31.3911 23.8375C31.7065 23.2983 31.5108 22.5505 30.9716 22.235ZM26.1642 23.4935C25.625 23.178 24.8771 23.3738 24.5617 23.913C24.2462 24.4522 24.442 25.2 24.9812 25.5155C25.5204 25.8309 26.2682 25.6352 26.5836 25.096C26.8991 24.5568 26.7034 23.809 26.1642 23.4935Z" fill="#FF8201"/>
</g>
<defs>
<clipPath id="clip0_4080_648">
<rect width="26.4" height="26.4" fill="white" transform="translate(10.8)"/>
</clipPath>
<clipPath id="clip1_4080_648">
<rect width="18.7409" height="18.7409" fill="white" transform="translate(27.0242 10.4263) rotate(30.3305)"/>
</clipPath>
</defs>
</svg>
