<svg width="268" height="215" viewBox="0 0 268 215" fill="none" xmlns="http://www.w3.org/2000/svg">
<path d="M62.2068 83.747H88.8937V131.629H111.934V152.266H62.2068V83.747ZM118.584 83.747H128.409L161.532 114.853L195.556 83.747H205.038V152.266H176.849V130.042L159.344 149.263L142.31 130.556V152.266H118.584V83.747Z" fill="black"/>
<g clip-path="url(#clip0_4006_144)">
<path d="M110.577 20.2382C115.742 44.9607 104.08 62.4712 104.08 62.4712H113.826C119.933 43.6288 117.074 30.2766 115.45 23.4869M122.467 14.2606C123.02 14.9428 123.572 15.6575 123.994 16.4047C129.549 25.2087 128.445 36.3192 121.947 43.8237C124.676 37.1639 124.287 29.302 120.161 22.7397C119.901 22.3173 119.608 21.96 119.349 21.5701C117.432 18.8737 114.995 16.7296 112.331 15.1377C102.975 18.1265 96.2178 26.8655 96.2178 37.1964C96.2178 39.6004 96.5752 41.907 97.2249 44.0511C94.496 40.2501 92.9041 35.6045 92.9041 30.6015C92.9041 22.9671 96.6076 16.2098 102.293 11.9865C97.5823 11.6291 92.5793 12.6687 88.226 15.3651C86.2118 16.6971 84.4575 18.224 82.9631 19.9458C84.7499 15.625 87.8362 11.7591 92.0595 9.09515C96.9325 6.04138 102.455 5.03428 107.783 5.81397C106.451 3.9947 104.827 2.27289 102.878 0.746008C100.993 -0.618443 98.9467 -1.723 96.8026 -2.50269C101.481 -2.37274 106.159 -0.878338 110.155 2.14295C112.201 3.66983 113.826 5.52159 115.125 7.47081C115.45 7.47081 115.742 7.43832 116.067 7.43832C126.463 7.43832 135.267 14.2931 138.191 23.7468C134.552 18.6138 128.932 15.1377 122.467 14.2606Z" fill="black"/>
</g>
<path d="M2.45044 190.6V171.814H9.31168C10.6186 171.814 11.7894 172.059 12.824 172.549C13.8586 173.021 14.6754 173.72 15.2744 174.645C15.8916 175.553 16.2002 176.651 16.2002 177.94C16.2002 179.301 15.8462 180.436 15.1383 181.343C14.4304 182.251 13.5047 182.922 12.3611 183.358L16.7447 190.6H12.47L8.73991 183.903H6.23502V190.6H2.45044ZM6.23502 180.771H9.01219C9.99236 180.771 10.791 180.535 11.4082 180.064C12.0253 179.592 12.3339 178.884 12.3339 177.94C12.3339 177.014 12.0253 176.324 11.4082 175.871C10.791 175.399 9.99236 175.163 9.01219 175.163H6.23502V180.771ZM20.3183 190.6V171.814H33.1695V175.163H24.1028V179.519H31.8626V182.705H24.1028V187.252H33.3056V190.6H20.3183ZM36.1068 188.422L37.9855 185.346C38.7841 186.035 39.7008 186.589 40.7354 187.006C41.7882 187.406 42.8501 187.605 43.921 187.605C44.5926 187.605 45.1553 187.524 45.6091 187.36C46.081 187.179 46.435 186.943 46.6709 186.653C46.9251 186.362 47.0521 186.044 47.0521 185.7C47.0521 185.373 46.9432 185.055 46.7254 184.747C46.5076 184.42 46.1173 184.102 45.5546 183.794C45.0101 183.467 44.2205 183.131 43.1859 182.786C41.6793 182.296 40.4722 181.752 39.5647 181.153C38.6571 180.535 38.0036 179.873 37.6043 179.165C37.205 178.439 37.0053 177.677 37.0053 176.878C37.0053 175.898 37.2685 174.999 37.7949 174.182C38.3394 173.366 39.12 172.721 40.1364 172.249C41.1711 171.759 42.4144 171.514 43.8666 171.514C45.0464 171.514 46.2262 171.714 47.4061 172.113C48.6041 172.513 49.6296 173.03 50.4827 173.665L48.6858 176.633C47.9597 176.07 47.161 175.616 46.2898 175.272C45.4185 174.927 44.5109 174.754 43.5671 174.754C42.6595 174.754 41.9697 174.936 41.4978 175.299C41.0259 175.662 40.7899 176.079 40.7899 176.551C40.7899 176.86 40.8988 177.159 41.1166 177.45C41.3526 177.74 41.7338 178.031 42.2601 178.321C42.8047 178.593 43.5489 178.884 44.4928 179.192C46.0538 179.701 47.3062 180.272 48.2501 180.908C49.194 181.525 49.8747 182.205 50.2922 182.95C50.7278 183.694 50.9456 184.511 50.9456 185.4C50.9456 186.38 50.6733 187.288 50.1288 188.123C49.5843 188.958 48.7584 189.629 47.6511 190.138C46.5439 190.646 45.1735 190.9 43.5398 190.9C42.6686 190.9 41.7882 190.8 40.8988 190.6C40.0275 190.383 39.1835 190.092 38.3667 189.729C37.568 189.366 36.8147 188.931 36.1068 188.422ZM53.6088 181.207C53.6088 179.664 53.8357 178.294 54.2894 177.096C54.7432 175.898 55.3695 174.881 56.1681 174.046C56.9668 173.211 57.8925 172.585 58.9453 172.168C59.9981 171.732 61.1144 171.514 62.2942 171.514C63.4922 171.514 64.6176 171.732 65.6704 172.168C66.7232 172.585 67.6489 173.211 68.4476 174.046C69.2462 174.881 69.8634 175.898 70.299 177.096C70.7528 178.294 70.9797 179.664 70.9797 181.207C70.9797 182.75 70.7528 184.12 70.299 185.318C69.8634 186.516 69.2462 187.533 68.4476 188.368C67.6489 189.203 66.7232 189.838 65.6704 190.274C64.6176 190.691 63.4922 190.9 62.2942 190.9C61.1144 190.9 59.9981 190.691 58.9453 190.274C57.8925 189.838 56.9668 189.203 56.1681 188.368C55.3695 187.533 54.7432 186.516 54.2894 185.318C53.8357 184.12 53.6088 182.75 53.6088 181.207ZM57.475 181.207C57.475 182.26 57.593 183.177 57.829 183.957C58.0831 184.738 58.428 185.391 58.8636 185.917C59.2992 186.444 59.8075 186.843 60.3883 187.115C60.9692 187.37 61.6045 187.497 62.2942 187.497C62.984 187.497 63.6193 187.37 64.2001 187.115C64.781 186.843 65.2892 186.444 65.7248 185.917C66.1605 185.391 66.4963 184.738 66.7322 183.957C66.9864 183.177 67.1134 182.26 67.1134 181.207C67.1134 180.154 66.9864 179.238 66.7322 178.457C66.4963 177.677 66.1605 177.023 65.7248 176.497C65.2892 175.97 64.781 175.58 64.2001 175.326C63.6193 175.054 62.984 174.918 62.2942 174.918C61.6045 174.918 60.9692 175.054 60.3883 175.326C59.8075 175.58 59.2992 175.97 58.8636 176.497C58.428 177.023 58.0831 177.677 57.829 178.457C57.593 179.238 57.475 180.154 57.475 181.207ZM74.7991 190.6V171.814H81.6604C82.9673 171.814 84.1381 172.059 85.1727 172.549C86.2073 173.021 87.0241 173.72 87.6231 174.645C88.2403 175.553 88.5489 176.651 88.5489 177.94C88.5489 179.301 88.1949 180.436 87.487 181.343C86.7791 182.251 85.8534 182.922 84.7098 183.358L89.0934 190.6H84.8187L81.0886 183.903H78.5837V190.6H74.7991ZM78.5837 180.771H81.3609C82.3411 180.771 83.1397 180.535 83.7569 180.064C84.374 179.592 84.6826 178.884 84.6826 177.94C84.6826 177.014 84.374 176.324 83.7569 175.871C83.1397 175.399 82.3411 175.163 81.3609 175.163H78.5837V180.771ZM90.9516 175.163V171.814H105.355V175.163H100.046V190.6H96.2609V175.163H90.9516ZM106.913 188.422L108.792 185.346C109.591 186.035 110.507 186.589 111.542 187.006C112.595 187.406 113.657 187.605 114.728 187.605C115.399 187.605 115.962 187.524 116.416 187.36C116.888 187.179 117.242 186.943 117.477 186.653C117.732 186.362 117.859 186.044 117.859 185.7C117.859 185.373 117.75 185.055 117.532 184.747C117.314 184.42 116.924 184.102 116.361 183.794C115.817 183.467 115.027 183.131 113.992 182.786C112.486 182.296 111.279 181.752 110.371 181.153C109.464 180.535 108.81 179.873 108.411 179.165C108.012 178.439 107.812 177.677 107.812 176.878C107.812 175.898 108.075 174.999 108.601 174.182C109.146 173.366 109.926 172.721 110.943 172.249C111.978 171.759 113.221 171.514 114.673 171.514C115.853 171.514 117.033 171.714 118.213 172.113C119.411 172.513 120.436 173.03 121.289 173.665L119.492 176.633C118.766 176.07 117.968 175.616 117.096 175.272C116.225 174.927 115.317 174.754 114.374 174.754C113.466 174.754 112.776 174.936 112.304 175.299C111.832 175.662 111.596 176.079 111.596 176.551C111.596 176.86 111.705 177.159 111.923 177.45C112.159 177.74 112.54 178.031 113.067 178.321C113.611 178.593 114.355 178.884 115.299 179.192C116.86 179.701 118.113 180.272 119.057 180.908C120.001 181.525 120.681 182.205 121.099 182.95C121.534 183.694 121.752 184.511 121.752 185.4C121.752 186.38 121.48 187.288 120.935 188.123C120.391 188.958 119.565 189.629 118.458 190.138C117.35 190.646 115.98 190.9 114.346 190.9C113.475 190.9 112.595 190.8 111.705 190.6C110.834 190.383 109.99 190.092 109.173 189.729C108.375 189.366 107.621 188.931 106.913 188.422ZM131.032 185.972C131.032 184.828 131.34 183.839 131.957 183.004C132.593 182.151 133.409 181.443 134.408 180.88L138.301 178.702C138.719 178.466 139.073 178.23 139.363 177.994C139.672 177.758 139.898 177.504 140.044 177.232C140.207 176.942 140.289 176.615 140.289 176.252C140.289 175.725 140.116 175.263 139.771 174.863C139.445 174.464 138.982 174.264 138.383 174.264C137.802 174.264 137.339 174.464 136.994 174.863C136.668 175.263 136.504 175.725 136.504 176.252C136.504 176.851 136.695 177.377 137.076 177.831C137.475 178.267 137.965 178.829 138.546 179.519L147.94 190.6H143.365L135.47 181.262C134.816 180.481 134.244 179.701 133.754 178.92C133.264 178.14 133.019 177.25 133.019 176.252C133.019 175.344 133.246 174.536 133.7 173.829C134.154 173.102 134.78 172.54 135.578 172.14C136.395 171.723 137.33 171.514 138.383 171.514C139.454 171.514 140.379 171.723 141.16 172.14C141.941 172.54 142.54 173.084 142.957 173.774C143.393 174.464 143.61 175.235 143.61 176.088C143.61 176.778 143.474 177.404 143.202 177.967C142.948 178.512 142.549 179.02 142.004 179.492C141.478 179.964 140.815 180.436 140.016 180.908L136.45 182.977C135.887 183.285 135.451 183.685 135.143 184.175C134.852 184.647 134.707 185.155 134.707 185.7C134.707 186.335 134.925 186.843 135.361 187.224C135.814 187.605 136.404 187.796 137.13 187.796C138.129 187.796 139.027 187.515 139.826 186.952C140.643 186.371 141.351 185.591 141.95 184.61C142.567 183.63 143.075 182.541 143.474 181.343L146.578 182.514C146.124 183.585 145.589 184.62 144.972 185.618C144.355 186.616 143.638 187.515 142.821 188.313C142.022 189.112 141.115 189.747 140.098 190.219C139.082 190.673 137.938 190.9 136.668 190.9C135.578 190.9 134.607 190.7 133.754 190.301C132.901 189.902 132.229 189.33 131.739 188.586C131.267 187.841 131.032 186.97 131.032 185.972ZM156.003 181.207C156.003 179.664 156.248 178.294 156.738 177.096C157.228 175.898 157.891 174.89 158.726 174.074C159.579 173.239 160.55 172.603 161.639 172.168C162.746 171.732 163.917 171.514 165.151 171.514C166.313 171.514 167.402 171.678 168.419 172.004C169.435 172.313 170.433 172.794 171.414 173.447L169.453 176.578C168.818 176.088 168.146 175.707 167.438 175.435C166.749 175.163 166.004 175.027 165.206 175.027C164.207 175.027 163.3 175.263 162.483 175.734C161.684 176.188 161.049 176.878 160.577 177.804C160.105 178.711 159.869 179.846 159.869 181.207C159.869 182.55 160.105 183.703 160.577 184.665C161.049 185.609 161.684 186.335 162.483 186.843C163.3 187.333 164.226 187.578 165.26 187.578C165.732 187.578 166.231 187.524 166.758 187.415C167.284 187.288 167.792 187.097 168.282 186.843V183.739H164.552V180.554H171.958V188.395C170.942 189.194 169.853 189.811 168.691 190.247C167.547 190.682 166.322 190.9 165.015 190.9C163.799 190.9 162.646 190.682 161.557 190.247C160.486 189.811 159.534 189.185 158.699 188.368C157.864 187.533 157.201 186.516 156.711 185.318C156.239 184.12 156.003 182.75 156.003 181.207ZM173.923 190.6L180.893 171.814H184.487L191.457 190.6H187.4L185.549 185.318L187.645 186.38H177.625L179.64 185.482L177.87 190.6H173.923ZM179.831 184.883L178.687 183.304H186.583L185.44 184.883L182.091 175.217H183.18L179.831 184.883ZM194.077 190.6V171.814H199.36L203.798 183.059H202.545L207.01 171.814H212.265V190.6H208.617V174.918L209.243 175.027L204.424 186.625H201.946L197.1 175.027L197.726 174.918V190.6H194.077ZM216.612 190.6V187.687H219.144V174.727H216.612V171.814H225.488V174.727H222.929V187.687H225.488V190.6H216.612ZM229.813 190.6V171.814H234.877L242.746 187.524L241.956 187.687V171.814H245.469V190.6H240.595L232.536 174.482L233.298 174.291V190.6H229.813ZM249.277 181.207C249.277 179.664 249.522 178.294 250.012 177.096C250.503 175.898 251.165 174.89 252 174.074C252.853 173.239 253.824 172.603 254.913 172.168C256.021 171.732 257.191 171.514 258.426 171.514C259.587 171.514 260.676 171.678 261.693 172.004C262.709 172.313 263.708 172.794 264.688 173.447L262.728 176.578C262.092 176.088 261.421 175.707 260.713 175.435C260.023 175.163 259.279 175.027 258.48 175.027C257.482 175.027 256.574 175.263 255.757 175.734C254.959 176.188 254.323 176.878 253.851 177.804C253.38 178.711 253.144 179.846 253.144 181.207C253.144 182.55 253.38 183.703 253.851 184.665C254.323 185.609 254.959 186.335 255.757 186.843C256.574 187.333 257.5 187.578 258.535 187.578C259.006 187.578 259.506 187.524 260.032 187.415C260.558 187.288 261.067 187.097 261.557 186.843V183.739H257.827V180.554H265.232V188.395C264.216 189.194 263.127 189.811 261.965 190.247C260.822 190.682 259.596 190.9 258.289 190.9C257.073 190.9 255.921 190.682 254.832 190.247C253.761 189.811 252.808 189.185 251.973 188.368C251.138 187.533 250.475 186.516 249.985 185.318C249.513 184.12 249.277 182.75 249.277 181.207Z" fill="black"/>
<g clip-path="url(#clip1_4006_144)">
<path d="M149.019 59.6473L120.548 42.99C118.311 41.6812 115.41 42.4406 114.102 44.6776L97.4442 73.1484C96.1355 75.3854 96.8949 78.2865 99.1319 79.5953L127.603 96.2526C129.84 97.5614 132.741 96.802 134.05 94.565L150.707 66.0942C152.016 63.8572 151.256 60.9561 149.019 59.6473ZM129.657 81.0763C128.031 80.1245 125.774 80.7151 124.822 82.342C123.87 83.9689 124.461 86.2254 126.088 87.1772C127.715 88.129 129.971 87.5384 130.923 85.9115C131.875 84.2846 131.284 82.0282 129.657 81.0763Z" fill="black"/>
<path d="M146.64 63.7144L129.982 92.1852L101.511 75.5279L118.169 47.0571L146.64 63.7144ZM149.019 59.6472L120.548 42.9898C118.311 41.6811 115.41 42.4405 114.102 44.6775L97.4442 73.1483C96.1355 75.3853 96.8949 78.2864 99.1319 79.5951L127.603 96.2525C129.84 97.5613 132.741 96.8018 134.05 94.5648L150.707 66.0941C152.016 63.8571 151.256 60.956 149.019 59.6472ZM122.063 52.0653C120.436 51.1134 118.18 51.7041 117.228 53.331C116.276 54.9579 116.867 57.2143 118.494 58.1661C120.121 59.118 122.377 58.5273 123.329 56.9004C124.281 55.2735 123.69 53.0171 122.063 52.0653ZM129.657 81.0762C128.031 80.1243 125.774 80.715 124.822 82.3419C123.87 83.9688 124.461 86.2252 126.088 87.1771C127.715 88.1289 129.971 87.5383 130.923 85.9113C131.875 84.2844 131.284 82.028 129.657 81.0762ZM140.366 62.7735C138.739 61.8217 136.482 62.4124 135.531 64.0393C134.579 65.6662 135.169 67.9226 136.796 68.8744C138.423 69.8263 140.68 69.2356 141.631 67.6087C142.583 65.9818 141.993 63.7254 140.366 62.7735ZM125.86 66.5707C124.233 65.6189 121.977 66.2095 121.025 67.8365C120.073 69.4634 120.664 71.7198 122.291 72.6716C123.918 73.6235 126.174 73.0328 127.126 71.4059C128.078 69.779 127.487 67.5226 125.86 66.5707ZM111.355 70.3679C109.728 69.4161 107.471 70.0067 106.52 71.6336C105.568 73.2605 106.158 75.5169 107.785 76.4688C109.412 77.4206 111.669 76.83 112.621 75.2031C113.572 73.5762 112.982 71.3198 111.355 70.3679Z" fill="#FF8201"/>
</g>
<line x1="1" y1="208.5" x2="124" y2="208.5" stroke="black"/>
<line x1="144" y1="208.5" x2="267" y2="208.5" stroke="black"/>
<circle cx="134" cy="209" r="6" fill="#FF8201"/>
<defs>
<clipPath id="clip0_4006_144">
<rect width="77.9687" height="77.9687" fill="white" transform="translate(65.5927)"/>
</clipPath>
<clipPath id="clip1_4006_144">
<rect width="56.5468" height="56.5468" fill="white" transform="translate(113.95 30.9399) rotate(30.3305)"/>
</clipPath>
</defs>
</svg>
